PathFileType	4	(X/Y/Z)	Walking05.trc	
DataRate	CameraRate	NumFrames	NumMarkers	Units	OrigDataRate	OrigDataStartFrame	OrigNumFrames	
100.00	100.00	13	19	mm	100.00	458	98	
Frame#	Time	RPSI			LPSI			RASI			LASI			RTHI			RKNE			RHFB			RTUB			RSHN			RANK			RLCA			RSTL			RPCA			RCPG			RHEE			RP5M			RP1M			RD5M			RTOE			
		X1	Y1	Z1	X2	Y2	Z2	X3	Y3	Z3	X4	Y4	Z4	X5	Y5	Z5	X6	Y6	Z6	X7	Y7	Z7	X8	Y8	Z8	X9	Y9	Z9	X10	Y10	Z10	X11	Y11	Z11	X12	Y12	Z12	X13	Y13	Z13	X14	Y14	Z14	X15	Y15	Z15	X16	Y16	Z16	X17	Y17	Z17	X18	Y18	Z18	X19	Y19	Z19	

74	0.730	269.03088	923.13983	121.40000	265.91818	933.96222	28.03157	459.44125	875.91742	190.64622	460.48779	882.11798	-45.10776	440.66821	577.71429	250.07007	487.56747	449.05951	245.03294	475.08160	415.69165	244.16354	532.70111	384.14954	198.11638	478.93137	324.66852	180.24716	250.17319	181.43182	173.42749	228.24838	169.48503	163.37848	241.39467	165.87285	100.49022	229.10678	202.36066	127.10127	202.55527	207.49614	120.91777	200.30138	173.99950	117.09404	282.36502	89.95852	199.23645	333.50690	112.04640	126.19031	306.87457	69.10373	208.21748	347.35349	66.58140	176.01553 
75	0.740	282.99832	924.96954	122.23163	279.81454	935.67657	28.63556	473.62430	877.99518	189.66458	473.90649	882.89966	-45.55515	460.10220	580.40869	249.43384	510.29944	452.21597	242.87068	498.86035	417.43277	241.94994	557.67151	389.18503	195.38756	507.31134	326.88235	177.92052	288.21143	170.09767	173.87833	266.76285	156.45123	163.77271	274.17593	156.35759	100.77898	265.18338	188.94174	127.51087	238.29874	191.88943	121.44880	238.21597	158.30907	117.79673	325.29712	80.50069	200.18852	375.45380	105.22031	126.51253	352.37973	62.22661	209.56993	392.74854	62.26879	176.93645 
76	0.750	296.93558	926.41272	123.30516	293.64993	936.90857	29.42925	487.65308	879.69122	188.96521	487.25073	883.34668	-45.89917	479.10474	582.60333	248.86162	532.24921	454.85397	240.52890	521.90198	418.83795	239.54594	581.79260	393.86975	192.41747	535.26434	328.86841	175.56660	327.54984	157.76456	174.03349	306.42401	143.10719	164.32135	322.42114	139.03957	102.07412	303.24652	174.39578	128.24731	274.28857	175.18413	122.29468	277.30951	142.29382	118.67544	369.39325	71.64351	201.82895	420.21896	101.61712	130.38947	398.67276	55.17916	210.86752	438.94791	58.00829	178.05843 
77	0.760	310.85315	927.37421	124.49947	307.31586	937.73553	30.45732	501.63324	881.08490	188.68243	500.62711	883.37073	-46.20847	497.82132	584.31909	248.38187	553.14508	457.05933	238.06291	545.18146	420.07941	237.01465	604.97308	398.09711	189.37350	562.76685	330.53851	173.33746	367.29950	145.17012	175.10133	347.17630	129.16032	165.55206	365.14523	124.93794	103.42982	341.87262	159.77734	128.81767	312.21249	158.17429	123.16917	318.23154	125.61713	119.97706	415.13141	62.72116	203.16568	463.11780	95.85435	132.01009	445.68588	48.39592	212.00523	485.89169	54.50461	178.70166 
78	0.770	324.76508	927.77789	125.74914	321.02417	938.09845	31.64190	515.50586	882.10260	188.71620	513.97693	882.91492	-46.27483	515.92700	585.55371	247.59595	573.15582	458.70404	235.56876	567.83093	421.11884	234.63606	627.18732	401.83273	186.27959	589.56934	331.93774	171.17642	408.10626	132.42258	176.70480	389.33347	114.81995	167.32327	407.09634	111.72468	105.01718	381.47800	145.15417	129.89169	351.89218	141.27831	124.68859	360.46039	108.97076	121.47523	462.07898	54.41852	204.43752	507.33578	90.61242	132.07983	493.57779	42.32175	213.25093	533.01654	51.70527	179.37816 
79	0.780	338.65411	927.49829	127.04335	334.70230	937.84009	32.93725	529.44031	882.74792	189.03177	527.15588	881.94482	-46.25973	533.60010	586.13000	246.65393	592.48199	459.74292	233.08578	587.43756	421.18475	232.31522	648.24554	405.02658	183.11783	615.57367	332.87363	169.15828	450.05298	120.29353	177.93387	432.08365	101.70551	168.99112	449.50549	99.19614	106.95232	421.82242	130.79395	131.49579	392.92950	124.76326	126.44754	403.49054	93.05553	123.47339	509.79208	46.78739	205.95860	551.99750	85.65723	132.68008	541.86847	37.05368	214.70911	580.04102	49.16829	181.43190 
80	0.790	352.47452	926.53271	128.29071	348.44788	936.92426	34.42648	543.50281	882.89508	189.56778	540.16925	880.44922	-46.12293	550.75659	586.01312	245.35402	610.83575	460.13849	230.52998	607.23517	420.38477	229.60947	668.15503	407.58676	180.07359	640.76031	333.53183	167.24652	492.56680	108.93170	179.00810	475.74829	89.78381	170.33044	493.16800	87.54354	108.93369	462.87619	117.06729	133.38045	434.89810	108.79222	128.45724	447.39401	78.12479	125.86031	557.94366	40.02844	207.66100	596.20703	82.01369	133.93011	590.38409	32.52641	215.89166	627.03009	47.71236	182.64412 
81	0.800	366.28897	924.95496	129.55791	362.05585	935.34302	35.99451	557.61816	882.50806	190.12680	553.35431	878.63208	-45.71141	567.37756	585.22968	243.76100	628.09406	459.79358	227.97058	626.17566	419.17520	227.14063	686.93481	409.44290	177.06955	665.19275	333.93567	165.44644	535.72412	98.49049	180.51575	520.32990	78.13116	172.24156	537.80908	77.17294	110.93070	505.65363	104.19585	134.95027	477.28952	93.67697	130.71770	491.89063	64.38309	128.54031	606.30872	34.61769	209.36740	640.92517	79.28468	135.27078	639.50281	29.91872	217.13855	673.44269	47.09497	184.24901 
82	0.810	380.18668	922.72040	130.88951	375.62955	933.16333	37.68058	571.93622	881.60724	190.84348	566.86493	876.59998	-45.20938	583.72607	583.89410	242.35791	643.92090	458.68896	225.39221	644.06885	417.32446	224.76474	704.73065	410.50116	174.19586	688.87170	334.09509	163.69341	578.98077	89.68958	182.36041	565.35754	67.28980	174.59247	582.29999	67.96622	112.97666	548.42285	92.59250	136.49315	520.73029	80.20229	132.86356	536.88489	52.24078	131.38156	654.58252	30.97503	211.03781	685.18250	77.58337	136.84866	688.27209	29.37815	219.13472	720.60394	48.75769	185.98549 
83	0.820	394.25876	919.83484	132.31380	389.25217	930.38977	39.49546	586.39636	880.15137	191.60724	579.66907	874.09204	-44.42452	599.42908	581.84937	240.59842	658.81647	456.73227	222.62454	660.97131	414.58505	222.47234	721.78571	410.59451	171.33032	711.71765	334.09384	161.92642	622.25494	82.48487	184.07857	609.95599	58.57027	176.48415	626.67938	60.30897	114.79798	591.34229	82.64889	138.19147	564.61853	68.32676	134.96632	583.49658	41.65859	132.89992	702.29388	29.45269	212.56134	728.37543	77.79687	138.62137	736.19287	30.54445	220.62961	767.43927	52.27467	187.24084 
84	0.830	408.42407	916.42920	133.78256	402.94254	927.26587	41.43009	601.15814	878.20227	192.35999	591.65979	871.09241	-43.37209	614.42072	579.34180	238.75241	673.93085	453.38089	219.70364	677.15686	411.14102	220.40442	738.40137	409.76584	168.69543	733.85358	334.03525	160.33752	665.13879	76.95882	185.62981	654.67407	52.10884	178.25044	670.68066	54.56448	116.39579	633.41797	74.51953	140.16814	608.15326	57.96767	137.30788	629.15814	33.06651	134.95782	749.15021	30.11542	213.82498	770.90143	79.99374	139.65694	782.96112	33.77164	221.79753	812.69885	57.71224	188.07790 
85	0.840	422.79584	912.67206	135.41504	416.63065	923.94177	43.39669	616.29175	875.82043	193.01042	605.32825	868.51086	-42.83332	628.94373	576.42236	237.38708	688.06329	449.38269	217.38705	692.70380	407.26929	218.69174	754.72235	408.32727	166.27205	755.38959	334.17175	158.93794	707.21033	73.23427	186.92960	699.14624	48.10698	180.06291	713.85126	51.10399	117.42576	674.01379	68.49944	142.57353	650.93506	49.08824	139.87794	673.95184	26.63162	136.70967	794.64172	32.78162	214.87714	811.91412	84.01041	140.31706	827.95581	39.10914	222.46201	856.56390	64.89468	188.12074 
86	0.850	437.22379	908.72681	137.23061	430.41821	920.62927	45.46447	631.69458	873.03809	193.64839	619.00177	865.72980	-42.36045	643.25537	573.05170	236.88629	701.97894	445.16809	215.83882	708.08459	403.58612	217.31871	770.71643	406.84421	164.17415	776.15466	334.64420	157.82735	747.32190	71.96223	188.21591	741.65808	45.76291	181.46254	756.03644	49.43992	118.24711	714.10364	64.32374	144.20795	692.67877	43.04731	141.96654	717.57520	23.03348	137.89642	838.00287	37.11934	215.60934	851.04919	89.42429	141.07520	870.65875	46.00468	222.74445	898.81464	73.30392	187.62404 
